<svg id="svg" version="1.1" xmlns="http://www.w3.org/2000/svg" xmlns:xlink="http://www.w3.org/1999/xlink" width="400" height="333.92857142857144" viewBox="0, 0, 400,333.92857142857144"><g id="svgg"><path id="path0" d="M293.734 167.084 L 293.734 334.169 310.777 334.169 L 327.820 334.169 327.820 167.084 L 327.820 0.000 310.777 0.000 L 293.734 0.000 293.734 167.084 " stroke="none" fill="#db3e4d" fill-rule="evenodd"></path><path id="path1" d="M220.551 75.522 L 220.551 151.044 237.427 151.044 L 254.302 151.044 254.302 75.522 L 254.302 0.000 237.427 0.000 L 220.551 0.000 220.551 75.522 " stroke="none" fill="#36A692" fill-rule="evenodd"></path><path id="path2" d="M0.000 75.522 L 0.000 151.044 15.706 151.044 L 31.412 151.044 31.412 75.522 L 31.412 0.000 15.706 0.000 L 0.000 0.000 0.000 75.522 M72.263 75.439 L 72.348 150.877 89.307 150.964 L 106.266 151.050 106.266 75.525 L 106.266 0.000 89.222 0.000 L 72.179 0.000 72.263 75.439 M147.450 33.500 L 147.536 67.001 163.492 67.088 L 179.449 67.174 179.449 33.587 L 179.449 0.000 163.407 0.000 L 147.365 0.000 147.450 33.500 M368.593 74.770 C 368.595 115.894,368.688 149.879,368.799 150.292 L 369.000 151.044 384.500 151.044 L 400.000 151.044 400.000 75.522 L 400.000 0.000 384.294 0.000 L 368.588 0.000 368.593 74.770 M147.368 116.124 L 147.368 151.044 163.409 151.044 L 179.449 151.044 179.449 116.124 L 179.449 81.203 163.409 81.203 L 147.368 81.203 147.368 116.124 M-0.000 258.643 L 0.000 334.169 15.707 334.169 L 31.413 334.169 31.329 258.730 L 31.245 183.292 15.622 183.205 L -0.000 183.118 -0.000 258.643 M72.403 183.347 C 72.281 183.470,72.180 217.455,72.180 258.869 L 72.180 334.169 89.223 334.169 L 106.266 334.169 106.266 258.647 L 106.266 183.124 89.446 183.124 C 80.195 183.124,72.526 183.225,72.403 183.347 M368.799 183.876 C 368.688 184.290,368.595 218.275,368.593 259.398 L 368.588 334.169 384.294 334.169 L 400.000 334.169 400.000 258.647 L 400.000 183.124 384.500 183.124 L 369.000 183.124 368.799 183.876 " stroke="none" fill="#ffffff" fill-rule="evenodd"></path></g></svg>